HIERARCHY
ROOT hip
{
  OFFSET 0 0 0
  CHANNELS 6 Xposition Yposition Zposition Zrotation Yrotation Xrotation
  JOINT abdomen
  {
    OFFSET 0 20.6881 -0.73152
    CHANNELS 3 Zrotation Xrotation Yrotation
    JOINT chest
    {
      OFFSET 0 11.7043 -0.48768
      CHANNELS 3 Zrotation Xrotation Yrotation
      JOINT neck
      {
        OFFSET 0 22.1894 -2.19456
        CHANNELS 3 Zrotation Xrotation Yrotation
        JOINT head
        {
          OFFSET -0.24384 7.07133 1.2192
          CHANNELS 3 Zrotation Xrotation Yrotation
          JOINT leftEye
          {
            OFFSET 4.14528 8.04674 8.04672
            CHANNELS 3 Zrotation Xrotation Yrotation
            End Site
            {
              OFFSET 1 0 0
            }
          }
          JOINT rightEye
          {
            OFFSET -3.6576 8.04674 8.04672
            CHANNELS 3 Zrotation Xrotation Yrotation
            End Site
            {
              OFFSET 1 0 0
            }
          }
        }
      }
      JOINT rCollar
      {
        OFFSET -2.68224 19.2634 -4.8768
        CHANNELS 3 Zrotation Xrotation Yrotation
        JOINT rShldr
        {
          OFFSET -8.77824 -1.95073 1.46304
          CHANNELS 3 Zrotation Xrotation Yrotation
          JOINT rForeArm
          {
            OFFSET -28.1742 -1.7115 0.48768
            CHANNELS 3 Zrotation Xrotation Yrotation
            JOINT rHand
            {
              OFFSET -22.5879 0.773209 7.07136
              CHANNELS 3 Zrotation Xrotation Yrotation
              JOINT rThumb1
              {
                OFFSET -1.2192 -0.487915 3.41376
                CHANNELS 3 Zrotation Xrotation Yrotation
                JOINT rThumb2
                {
                  OFFSET -3.37035 -0.52449 3.41376
                  CHANNELS 3 Zrotation Xrotation Yrotation
                  End Site
                  {
                    OFFSET -1.78271 -1.18214 1.43049
                  }
                }
              }
              JOINT rIndex1
              {
                OFFSET -7.75947 0.938293 5.60832
                CHANNELS 3 Zrotation Xrotation Yrotation
                JOINT rIndex2
                {
                  OFFSET -2.54057 -0.884171 1.56538
                  CHANNELS 3 Zrotation Xrotation Yrotation
                  End Site
                  {
                    OFFSET -1.62519 -0.234802 1.16502
                  }
                }
              }
              JOINT rMid1
              {
                OFFSET -8.24714 1.18213 3.41376
                CHANNELS 3 Zrotation Xrotation Yrotation
                JOINT rMid2
                {
                  OFFSET -3.10165 -0.590103 1.0647
                  CHANNELS 3 Zrotation Xrotation Yrotation
                  End Site
                  {
                    OFFSET -2.48547 -0.328903 0.83742
                  }
                }
              }
              JOINT rRing1
              {
                OFFSET -8.82822 0.546677 1.51678
                CHANNELS 3 Zrotation Xrotation Yrotation
                JOINT rRing2
                {
                  OFFSET -2.60934 -0.819778 -0.0198488
                  CHANNELS 3 Zrotation Xrotation Yrotation
                  End Site
                  {
                    OFFSET -2.33842 -0.294052 0.168128
                  }
                }
              }
              JOINT rPinky1
              {
                OFFSET -8.27202 -0.0477905 -0.4584
                CHANNELS 3 Zrotation Xrotation Yrotation
                JOINT rPinky2
                {
                  OFFSET -1.82734 -0.647385 -0.700984
                  CHANNELS 3 Zrotation Xrotation Yrotation
                  End Site
                  {
                    OFFSET -1.69225 -0.51767 -0.607171
                  }
                }
              }
            }
          }
        }
      }
      JOINT lCollar
      {
        OFFSET 2.68224 19.2634 -4.8768
        CHANNELS 3 Zrotation Xrotation Yrotation
        JOINT lShldr
        {
          OFFSET 8.77824 -1.95073 1.46304
          CHANNELS 3 Zrotation Xrotation Yrotation
          JOINT lForeArm
          {
            OFFSET 28.1742 -1.7115 0.48768
            CHANNELS 3 Zrotation Xrotation Yrotation
            JOINT lHand
            {
              OFFSET 22.5879 0.773209 7.07136
              CHANNELS 3 Zrotation Xrotation Yrotation
              JOINT lThumb1
              {
                OFFSET 1.2192 -0.487915 3.41376
                CHANNELS 3 Zrotation Xrotation Yrotation
                JOINT lThumb2
                {
                  OFFSET 3.37035 -0.52449 3.41376
                  CHANNELS 3 Zrotation Xrotation Yrotation
                  End Site
                  {
                    OFFSET 1.78271 -1.18214 1.43049
                  }
                }
              }
              JOINT lIndex1
              {
                OFFSET 7.75947 0.938293 5.60832
                CHANNELS 3 Zrotation Xrotation Yrotation
                JOINT lIndex2
                {
                  OFFSET 2.54057 -0.884171 1.56538
                  CHANNELS 3 Zrotation Xrotation Yrotation
                  End Site
                  {
                    OFFSET 1.62519 -0.234802 1.16502
                  }
                }
              }
              JOINT lMid1
              {
                OFFSET 8.24714 1.18213 3.41376
                CHANNELS 3 Zrotation Xrotation Yrotation
                JOINT lMid2
                {
                  OFFSET 3.10165 -0.590103 1.0647
                  CHANNELS 3 Zrotation Xrotation Yrotation
                  End Site
                  {
                    OFFSET 2.48547 -0.328903 0.83742
                  }
                }
              }
              JOINT lRing1
              {
                OFFSET 8.82822 0.546677 1.51678
                CHANNELS 3 Zrotation Xrotation Yrotation
                JOINT lRing2
                {
                  OFFSET 2.60934 -0.819778 -0.0198488
                  CHANNELS 3 Zrotation Xrotation Yrotation
                  End Site
                  {
                    OFFSET 2.33842 -0.294052 0.168128
                  }
                }
              }
              JOINT lPinky1
              {
                OFFSET 8.27202 -0.0477905 -0.4584
                CHANNELS 3 Zrotation Xrotation Yrotation
                JOINT lPinky2
                {
                  OFFSET 1.82734 -0.647385 -0.700984
                  CHANNELS 3 Zrotation Xrotation Yrotation
                  End Site
                  {
                    OFFSET 1.69225 -0.51767 -0.607171
                  }
                }
              }
            }
          }
        }
      }
    }
  }
  JOINT rButtock
  {
    OFFSET -8.77824 4.35084 1.2192
    CHANNELS 3 Zrotation Xrotation Yrotation
    JOINT rThigh
    {
      OFFSET 0 -1.70687 -2.19456
      CHANNELS 3 Zrotation Xrotation Yrotation
      JOINT rShin
      {
        OFFSET 0 -36.8199 0.73152
        CHANNELS 3 Zrotation Xrotation Yrotation
        JOINT rFoot
        {
          OFFSET 0.73152 -45.1104 -5.12064
          CHANNELS 3 Zrotation Xrotation Yrotation
          End Site
          {
            OFFSET -1.1221 -3.69964 12.103
          }
        }
      }
    }
  }
  JOINT lButtock
  {
    OFFSET 8.77824 4.35084 1.2192
    CHANNELS 3 Zrotation Xrotation Yrotation
    JOINT lThigh
    {
      OFFSET 0 -1.70687 -2.19456
      CHANNELS 3 Zrotation Xrotation Yrotation
      JOINT lShin
      {
        OFFSET 0 -36.8199 0.73152
        CHANNELS 3 Zrotation Xrotation Yrotation
        JOINT lFoot
        {
          OFFSET -0.73152 -45.1104 -5.12064
          CHANNELS 3 Zrotation Xrotation Yrotation
          End Site
          {
            OFFSET 1.1221 -3.69964 12.103
          }
        }
      }
    }
  }
}
MOTION
Frames:	9
Frame Time:	0.00833333
49.2921 85.7581 -3.29758 -5.8168 -5.1048 5.3008 4.57931 -1.11978 4.06584 -1.86588 -3.08816 1.02475 -13.7069 14.5477 -3.08568 22.6717 -24.8724 -0.744039 -0.0 0.0 0.0 -0.0 0.0 0.0 7.74228e-14 3.2222e-14 -1.12892e-13 69.9718 30.3198 10.6581 -17.616 -10.2792 33.1659 -0.00534269 -2.04851 -0.288027 -8.04906e-10 1.28264e-09 -4.14771e-10 -1.39114e-09 2.21477e-09 -7.17953e-10 -8.04895e-10 1.28264e-09 -4.14793e-10 7.73091 5.47488 0.417314 -8.04898e-10 1.28263e-09 -4.14764e-10 2.90554 0.965183 0.102902 -8.04897e-10 1.28263e-09 -4.14768e-10 10.2786 0.731801 0.0259123 -8.04912e-10 1.28264e-09 -4.14759e-10 2.22167 -0.733487 -0.20892 7.73727e-14 3.22122e-14 -1.13148e-13 -84.028 9.69169 20.597 9.71203 -3.96803 -17.2629 1.47368 32.2686 -5.09106 -2.86177e-10 -7.27129e-11 -1.15692e-09 -5.23821e-10 -1.26996e-10 -1.98799e-09 -2.86174e-10 -7.27001e-11 -1.1569e-09 -7.73091 5.47488 -0.417314 -2.8617e-10 -7.26984e-11 -1.15692e-09 -2.90554 0.965183 -0.102902 -2.86182e-10 -7.26984e-11 -1.15692e-09 -10.2786 0.731801 -0.0259123 -2.86176e-10 -7.26992e-11 -1.15693e-09 -2.22167 -0.733487 0.20892 -2.03217e-16 0.0 -3.88251e-19 7.36424 6.69749 2.26061 -0.175232 23.3455 0.0437512 -0.910115 0.876088 -5.78308 2.03217e-16 0.0 3.88251e-19 4.04779 -37.2026 -6.21596 0.0751161 18.4549 0.28141 -0.876983 5.78215 17.596
49.4605 85.7035 -1.90766 -6.0639 -5.2253 5.3056 3.75565 -1.26539 4.22152 -1.76803 -3.07563 1.05682 -13.702 14.5928 -3.12594 22.8646 -24.8843 -0.790518 -0.0 0.0 0.0 -0.0 0.0 0.0 -2.19959e-14 -8.28891e-14 -9.24349e-14 70.3393 30.5981 10.0082 -17.5585 -10.2198 33.0372 -0.00390091 -1.78307 -0.250676 -3.2015e-10 -4.68217e-10 -8.64093e-11 -5.53397e-10 -8.11649e-10 -1.49991e-10 -3.20138e-10 -4.68227e-10 -8.64316e-11 7.73091 5.47488 0.417314 -3.2014e-10 -4.6823e-10 -8.64029e-11 2.90554 0.965183 0.102902 -3.2014e-10 -4.68232e-10 -8.64069e-11 10.2786 0.731801 0.0259123 -3.20155e-10 -4.68219e-10 -8.63966e-11 2.22167 -0.733487 -0.20892 -2.20363e-14 -8.28977e-14 -9.26833e-14 -83.9268 9.42878 20.7771 9.68322 -3.95114 -17.2088 1.48638 32.3891 -5.11485 6.82228e-10 -1.00824e-11 -7.54564e-10 1.15762e-09 -1.94873e-11 -1.31879e-09 6.82234e-10 -1.00665e-11 -7.54548e-10 -7.73091 5.47488 -0.417314 6.82237e-10 -1.00645e-11 -7.54568e-10 -2.90554 0.965183 -0.102902 6.82225e-10 -1.00638e-11 -7.54568e-10 -10.2786 0.731801 -0.0259123 6.82229e-10 -1.00645e-11 -7.5458e-10 -2.22167 -0.733487 0.20892 -2.03217e-16 0.0 -3.88251e-19 6.32342 6.27486 1.84108 -0.191346 25.12 0.0763338 -0.697534 2.60781 -4.9715 2.03217e-16 0.0 3.88251e-19 3.40936 -37.322 -5.33669 0.0826373 19.9949 0.310887 -1.0875 6.74421 16.9198
49.7485 85.6535 -0.508523 -5.6949 -5.232 5.2145 2.93281 -1.42883 4.20381 -1.64132 -3.10114 1.04082 -13.7788 14.7134 -3.15831 23.1288 -24.9908 -0.802013 -0.0 0.0 0.0 -0.0 0.0 0.0 -5.69056e-14 -8.63745e-14 -7.91159e-14 70.724 30.7966 9.34179 -17.4762 -10.1349 32.8545 -0.00192814 -1.39618 -0.196251 -8.42861e-12 -1.07425e-09 -1.83967e-11 -1.48349e-11 -1.85858e-09 -3.26003e-11 -8.41781e-12 -1.07426e-09 -1.84171e-11 7.73091 5.47488 0.417314 -8.41965e-12 -1.07426e-09 -1.83923e-11 2.90554 0.965183 0.102902 -8.41819e-12 -1.07426e-09 -1.83951e-11 10.2786 0.731801 0.0259123 -8.43389e-12 -1.07425e-09 -1.83838e-11 2.22167 -0.733487 -0.20892 -5.69698e-14 -8.63808e-14 -7.93722e-14 -83.8408 9.19359 20.8999 9.61387 -3.91029 -17.079 1.49889 32.5056 -5.13801 8.57032e-10 1.63266e-11 -4.42784e-10 1.46709e-09 2.62299e-11 -7.85642e-10 8.57037e-10 1.63427e-11 -4.42771e-10 -7.73091 5.47488 -0.417314 8.57038e-10 1.63442e-11 -4.42791e-10 -2.90554 0.965183 -0.102902 8.57029e-10 1.63458e-11 -4.42788e-10 -10.2786 0.731801 -0.0259123 8.57032e-10 1.63447e-11 -4.428e-10 -2.22167 -0.733487 0.20892 -2.03217e-16 0.0 -3.88251e-19 5.30804 5.49693 1.11895 -0.21141 27.2769 0.115703 -0.514715 4.41699 -4.06164 2.03217e-16 0.0 3.88251e-19 2.72565 -37.6529 -4.09932 0.0990603 21.7705 0.326636 -1.10457 7.38227 15.2794
50.0777 85.6052 0.823111 -5.0461 -5.1303 5.1456 2.04876 -1.60424 4.06267 -1.48865 -3.15152 0.990557 -13.9116 14.8804 -3.18288 23.4469 -25.1437 -0.785761 -0.0 0.0 0.0 -0.0 0.0 0.0 -5.94623e-14 -3.1526e-14 -6.4018e-14 71.1307 30.9439 8.65959 -17.3665 -10.0217 32.6131 -0.00029184 -0.907874 -0.127593 2.38383e-10 -1.11852e-09 -7.65329e-11 4.11494e-10 -1.93414e-09 -1.33552e-10 2.3839e-10 -1.11853e-09 -7.65498e-11 7.73091 5.47488 0.417314 2.38389e-10 -1.11853e-09 -7.65313e-11 2.90554 0.965183 0.102902 2.38392e-10 -1.11853e-09 -7.65322e-11 10.2786 0.731801 0.0259123 2.38377e-10 -1.11852e-09 -7.65198e-11 2.22167 -0.733487 -0.20892 -5.95701e-14 -3.15292e-14 -6.42913e-14 -83.7628 8.96632 20.9854 9.51892 -3.85442 -16.902 1.51116 32.6183 -5.16052 6.24085e-10 2.63173e-11 -1.40364e-10 1.07264e-09 4.40292e-11 -2.58284e-10 6.24088e-10 2.63318e-11 -1.40354e-10 -7.73091 5.47488 -0.417314 6.24086e-10 2.63323e-11 -1.40374e-10 -2.90554 0.965183 -0.102902 6.24081e-10 2.63352e-11 -1.40367e-10 -10.2786 0.731801 -0.0259123 6.24085e-10 2.63333e-11 -1.40378e-10 -2.22167 -0.733487 0.20892 -2.03217e-16 0.0 -3.88251e-19 4.22493 4.42006 0.187503 -0.23743 29.7762 0.160102 -0.376891 6.33415 -3.0643 2.03217e-16 0.0 3.88251e-19 1.99579 -38.1059 -2.57438 0.121808 23.6982 0.335542 -0.981357 7.80469 12.9387
50.402 85.5231 2.07703 -4.3451 -4.9401 5.0122 1.15129 -1.70497 3.8411 -1.32998 -3.21568 0.916922 -14.049 15.0322 -3.20786 23.7368 -25.3098 -0.769826 -0.0 0.0 0.0 -0.0 0.0 0.0 -4.78156e-14 3.5342e-14 -4.75115e-14 71.5413 31.0577 7.98915 -17.241 -9.89332 32.3388 0.000240963 -0.442199 -0.062142 3.9358e-10 -8.88143e-10 -1.61848e-10 6.79468e-10 -1.5349e-09 -2.81424e-10 3.93584e-10 -8.88146e-10 -1.61862e-10 7.73091 5.47488 0.417314 3.93583e-10 -8.88149e-10 -1.61849e-10 2.90554 0.965183 0.102902 3.93589e-10 -8.8815e-10 -1.61848e-10 10.2786 0.731801 0.0259123 3.93574e-10 -8.88148e-10 -1.61835e-10 2.22167 -0.733487 -0.20892 -4.79683e-14 3.53416e-14 -4.78019e-14 -83.6626 8.71166 20.9847 9.41246 -3.79204 -16.704 1.5282 32.7764 -5.19203 2.57976e-10 2.78351e-11 1.1868e-10 4.47375e-10 4.73399e-11 1.97707e-10 2.57976e-10 2.78471e-11 1.18687e-10 -7.73091 5.47488 -0.417314 2.57972e-10 2.78467e-11 1.18667e-10 -2.90554 0.965183 -0.102902 2.5797e-10 2.78506e-11 1.18678e-10 -10.2786 0.731801 -0.0259123 2.57977e-10 2.78482e-11 1.18668e-10 -2.22167 -0.733487 0.20892 -2.03217e-16 0.0 -3.88251e-19 3.13844 3.1315 -0.766351 -0.273833 32.5203 0.206608 -0.293442 8.38497 -2.2777 2.03217e-16 0.0 3.88251e-19 1.27596 -38.488 -1.01987 0.146369 25.5562 0.344618 -0.777053 7.96826 10.4688
50.7289 85.4702 3.26222 -3.747 -4.5213 4.9361 0.290229 -1.64422 3.58215 -1.18523 -3.28257 0.83082 -14.1397 15.1073 -3.24144 23.9161 -25.4562 -0.782416 -0.0 0.0 0.0 -0.0 0.0 0.0 -4.01155e-14 6.79149e-14 -2.99668e-14 71.9387 31.1561 7.35774 -17.1121 -9.76292 32.0574 -1.86133e-05 -0.123189 -0.0173132 4.30459e-10 -6.70235e-10 -1.75373e-10 7.42967e-10 -1.15745e-09 -3.0479e-10 4.30461e-10 -6.70237e-10 -1.75385e-10 7.73091 5.47488 0.417314 4.3046e-10 -6.70238e-10 -1.75376e-10 2.90554 0.965183 0.102902 4.30467e-10 -6.70239e-10 -1.75373e-10 10.2786 0.731801 0.0259123 4.30453e-10 -6.70239e-10 -1.7536e-10 2.22167 -0.733487 -0.20892 -4.02955e-14 6.7916e-14 -3.0265e-14 -83.5112 8.39385 20.8494 9.30876 -3.7318 -16.5114 1.55532 33.0292 -5.24243 3.32942e-11 2.88254e-11 3.0033e-10 6.44054e-11 4.95912e-11 5.1675e-10 3.32936e-11 2.88349e-11 3.00337e-10 -7.73091 5.47488 -0.417314 3.32881e-11 2.88343e-11 3.00318e-10 -2.90554 0.965183 -0.102902 3.32882e-11 2.88386e-11 3.00329e-10 -10.2786 0.731801 -0.0259123 3.32964e-11 2.88361e-11 3.00321e-10 -2.22167 -0.733487 0.20892 -2.03217e-16 0.0 -3.88251e-19 2.13302 1.71982 -1.55803 -0.324076 35.412 0.251895 -0.230191 10.5954 -2.00599 2.03217e-16 0.0 3.88251e-19 0.589491 -38.6187 0.285747 0.167423 27.123 0.361032 -0.568378 7.84035 8.4445
50.9796 85.4254 4.42038 -3.5644 -3.9427 4.8344 -0.555815 -1.3322 3.22893 -1.04447 -3.3526 0.71522 -14.158 15.0582 -3.29407 23.9248 -25.5733 -0.84922 -0.0 0.0 0.0 -0.0 0.0 0.0 -3.87218e-14 4.50792e-14 -7.72426e-15 72.3015 31.2555 6.77882 -16.9882 -9.63843 31.7887 -0.000270339 0.00367408 0.000513333 2.62313e-10 -4.40193e-10 -6.3487e-11 4.52075e-10 -7.59248e-10 -1.10663e-10 2.62315e-10 -4.40194e-10 -6.35028e-11 7.73091 5.47488 0.417314 2.62311e-10 -4.40194e-10 -6.3491e-11 2.90554 0.965183 0.102902 2.62318e-10 -4.40194e-10 -6.34882e-11 10.2786 0.731801 0.0259123 2.62307e-10 -4.40194e-10 -6.34757e-11 2.22167 -0.733487 -0.20892 -3.89085e-14 4.50803e-14 -8.02166e-15 -83.2913 7.95347 20.5345 9.20228 -3.6707 -16.3135 1.59825 33.4224 -5.32144 2.19454e-11 2.91103e-11 3.77396e-10 4.72851e-11 5.04507e-11 6.5024e-10 2.19466e-11 2.91172e-11 3.77404e-10 -7.73091 5.47488 -0.417314 2.19403e-11 2.91177e-11 3.77386e-10 -2.90554 0.965183 -0.102902 2.19394e-11 2.91214e-11 3.77396e-10 -10.2786 0.731801 -0.0259123 2.19496e-11 2.91198e-11 3.77387e-10 -2.22167 -0.733487 0.20892 -2.03217e-16 0.0 -3.88251e-19 1.2276 0.175408 -2.16185 -0.391233 38.5485 0.292729 -0.0946104 13.2358 -2.41221 2.03217e-16 0.0 3.88251e-19 -0.120021 -38.419 1.26441 0.183949 28.3168 0.389691 -0.37911 7.32354 6.95296
51.2817 85.3703 5.59571 -3.0357 -3.3484 4.4908 -1.39537 -0.836994 2.78161 -0.902385 -3.43055 0.570939 -14.1358 14.928 -3.35855 23.8192 -25.679 -0.949278 -0.0 0.0 0.0 -0.0 0.0 0.0 -3.47812e-14 -5.54297e-15 1.81608e-14 72.6432 31.3431 6.23644 -16.8609 -9.51117 31.5148 -0.000267316 0.00867798 0.00121677 -7.00886e-11 -7.86119e-11 1.11949e-10 -1.22737e-10 -1.33784e-10 1.93774e-10 -7.00851e-11 -7.86108e-11 1.11928e-10 7.73091 5.47488 0.417314 -7.00918e-11 -7.86092e-11 1.11945e-10 2.90554 0.965183 0.102902 -7.0086e-11 -7.86083e-11 1.11948e-10 10.2786 0.731801 0.0259123 -7.00935e-11 -7.86074e-11 1.11958e-10 2.22167 -0.733487 -0.20892 -3.49635e-14 -5.54289e-15 1.78689e-14 -83.0283 7.42336 20.0785 9.08841 -3.60587 -16.1023 1.65417 33.9187 -5.42251 7.79212e-11 2.5218e-11 3.74059e-10 1.4456e-10 4.40606e-11 6.43526e-10 7.79258e-11 2.52217e-11 3.74072e-10 -7.73091 5.47488 -0.417314 7.79192e-11 2.5224e-11 3.74053e-10 -2.90554 0.965183 -0.102902 7.79155e-11 2.52265e-11 3.7406e-10 -10.2786 0.731801 -0.0259123 7.7928e-11 2.52263e-11 3.74049e-10 -2.22167 -0.733487 0.20892 -2.03217e-16 0.0 -3.88251e-19 0.380711 -1.53663 -2.67127 -0.47348 41.9408 0.332991 0.182354 16.1979 -3.3328 2.03217e-16 0.0 3.88251e-19 -0.87009 -38.0043 2.04972 0.1983 29.2633 0.4258 -0.211072 6.46405 5.71643
51.6358 85.3357 6.73514 -2.1356 -2.8669 4.0557 -2.16281 -0.308969 2.36852 -0.785574 -3.51185 0.435671 -14.1073 14.7913 -3.4166 23.6913 -25.7814 -1.04081 -0.0 0.0 0.0 -0.0 0.0 0.0 -2.96241e-14 -5.71628e-14 4.02457e-14 72.9991 31.3935 5.71382 -16.717 -9.36956 31.2045 -0.000127398 -0.0585647 -0.00823197 -4.0223e-10 2.69599e-10 2.76686e-10 -6.97014e-10 4.68387e-10 4.79683e-10 -4.02225e-10 2.69601e-10 2.7666e-10 7.73091 5.47488 0.417314 -4.02234e-10 2.69604e-10 2.76683e-10 2.90554 0.965183 0.102902 -4.0223e-10 2.69606e-10 2.76685e-10 10.2786 0.731801 0.0259123 -4.02234e-10 2.69609e-10 2.76694e-10 2.22167 -0.733487 -0.20892 -2.97904e-14 -5.71644e-14 3.99685e-14 -82.7553 6.90698 19.5571 8.98316 -3.54622 -15.9076 1.71524 34.4431 -5.53086 1.48941e-10 2.01524e-11 3.33365e-10 2.66816e-10 3.55624e-11 5.71959e-10 1.48949e-10 2.01531e-11 3.33382e-10 -7.73091 5.47488 -0.417314 1.48943e-10 2.01571e-11 3.33364e-10 -2.90554 0.965183 -0.102902 1.48936e-10 2.01581e-11 3.33367e-10 -10.2786 0.731801 -0.0259123 1.4895e-10 2.01595e-11 3.33355e-10 -2.22167 -0.733487 0.20892 -2.03217e-16 0.0 -3.88251e-19 -0.392643 -3.3659 -3.08143 -0.56694 45.3614 0.380022 0.59764 18.9386 -4.58237 2.03217e-16 0.0 3.88251e-19 -1.5881 -37.4937 2.67509 0.210171 30.0523 0.461909 -0.0841936 5.45834 4.75951
